# xmcd CD database file
#
# Track frame offsets:
#	150
#	19381
#	37595
#	54802
#	68015
#	82149
#	98580
#	114630
#	132162
#	145311
#	162369
#	175860
#
# Disc length: 2559 seconds
#
# Revision: 0
# Processed by: cddbd v1.5.2PL0 Copyright (c) Steve Scherf et al.
# Submitted via: CDex 1.51
#
DISCID=9609fd0c
DTITLE=Thomas Oliver - The Life You Save Might Be Your Own
DYEAR=2006
DGENRE=Country
TTITLE0=Traveling Kind
TTITLE1=Where You Are
TTITLE2=The Life You Save Might Be Your Own
TTITLE3=Now, Like Then
TTITLE4=Ms Heartache
TTITLE5=Then i remember
TTITLE6=Low-Down Mean Dirty Blues
TTITLE7=Can't Break A Broken Heart
TTITLE8=Audience Of One
TTITLE9=Stolen Kisses
TTITLE10=Man Enough
TTITLE11=Tell Me The Stories of Jesus
EXTD=YEAR: 2006
EXTT0=
EXTT1=
EXTT2=
EXTT3=
EXTT4=
EXTT5=
EXTT6=
EXTT7=
EXTT8=
EXTT9=
EXTT10=
EXTT11=
PLAYORDER=
